<?xml version="1.0" encoding="utf-8"?>
<!-- Generator: Adobe Illustrator 16.0.0, SVG Export Plug-In . SVG Version: 6.00 Build 0)  -->
<!DOCTYPE svg PUBLIC "-//W3C//DTD SVG 1.1//EN" "http://www.w3.org/Graphics/SVG/1.1/DTD/svg11.dtd">
<svg version="1.1" id="Layer_1" xmlns="http://www.w3.org/2000/svg" xmlns:xlink="http://www.w3.org/1999/xlink" x="0px" y="0px"
	 width="573.92px" height="307.079px" viewBox="0 0 573.92 307.079" enable-background="new 0 0 573.92 307.079"
	 xml:space="preserve">
<g>
	<path fill="#FFFFFF" d="M79.408,302.077H2.072V3.673h77.733c23.126,0,34.852,13.062,34.852,38.822V109.2
		c0,17.306-9.505,26.864-16.744,30.778c10.274,4.192,20.714,15.16,20.714,34.734v80.999
		C118.627,286.478,105.432,302.077,79.408,302.077z M5.072,299.077h74.336c24.034,0,36.22-14.591,36.22-43.366v-80.999
		c0-12.693-5.837-28.975-22.29-33.088l-5.179-1.294l5.095-1.592c0.184-0.058,18.403-6.023,18.403-29.538V42.495
		c0-24.104-10.419-35.822-31.852-35.822H5.072V299.077z M58.761,263.563h-6.265V161.698h6.265c6.236,0,7.456,3.461,7.456,9.441
		v83.38C66.217,259.285,65.647,263.563,58.761,263.563z M55.497,260.563h3.265c3.748,0,4.456-0.96,4.456-6.044v-83.38
		c0-5.913-1.155-6.441-4.456-6.441h-3.265V260.563z M57.57,128.17h-5.074V40.995h5.074c6.895,0,7.456,3.916,7.456,8.647v69.484
		C65.026,126.601,60.972,128.17,57.57,128.17z M55.497,125.17h2.074c2.314,0,4.456-0.732,4.456-6.044V49.642
		c0-4.908-0.583-5.647-4.456-5.647h-2.074V125.17z"/>
	<path fill="#FFFFFF" d="M248.457,302.077h-51.903l-0.449-0.628c-2.293-3.211-3.456-7.646-3.456-13.181V177.492
		c0-4.318-0.721-5.25-4.059-5.25h-2.471v129.835h-53.425V3.673h79.718c20.273,0,32.867,14.115,32.867,36.837v69.483
		c0,15.33-5.354,25.998-15.925,31.761c6.576,3.535,16.719,11.557,16.719,27.399v117.129c0,5.664,0.735,9.821,2.185,12.358
		l0.198,0.346V302.077z M198.128,299.077h46.988c-1.373-2.999-2.042-7.202-2.042-12.794V169.154
		c0-16.616-12.415-23.73-17.752-26.017l-3.217-1.379l3.217-1.379c11.411-4.891,16.958-14.83,16.958-30.385V40.51
		c0-21.188-11.166-33.837-29.867-33.837h-76.718v292.404h47.425V169.242h5.471c6.513,0,7.059,4.258,7.059,8.25v110.776
		C195.649,292.797,196.483,296.428,198.128,299.077z M188.591,130.155h-5.471v-89.16h5.868c6.152,0,6.662,3.902,6.662,8.25v72.66
		C195.649,127.071,193.011,130.155,188.591,130.155z M186.12,127.155h2.471c1.004,0,4.059,0,4.059-5.25v-72.66
		c0-4.734-0.741-5.25-3.662-5.25h-2.868V127.155z"/>
	<path fill="#FFFFFF" d="M314.362,302.077h-53.425V3.673h53.425V302.077z M263.938,299.077h47.425V6.673h-47.425V299.077z"/>
	<path fill="#FFFFFF" d="M442.747,302.077h-51.903l-2.779-53.204h-14.226l-2.779,53.204h-46.332l0.135-1.625L349.595,3.673h66.279
		L442.747,302.077z M393.691,299.077h45.772L413.132,6.673h-60.777l-24.367,292.404h40.225l2.779-53.204h19.921L393.691,299.077z
		 M388.688,205.595h-15.075l6.039-113.945h2.996L388.688,205.595z M376.777,202.595h8.747l-4.374-82.524L376.777,202.595z"/>
	<path fill="#FFFFFF" d="M567.67,302.077h-49.269l-20.561-155.415l0.349,155.415H453.1V3.673h53.651l16.563,136.23l-0.338-136.23
		h44.693V302.077z M521.03,299.077h43.64V6.673h-38.686l0.393,158.507l-2.989,0.185L504.093,6.673H456.1v292.404h39.084
		l-0.395-175.581l2.987-0.2L521.03,299.077z"/>
</g>
<g>
</g>
<g>
</g>
<g>
</g>
<g>
</g>
<g>
</g>
<g>
</g>
</svg>
