<?xml version="1.0" encoding="utf-8"?>
<!-- Generator: Adobe Illustrator 16.0.0, SVG Export Plug-In . SVG Version: 6.00 Build 0)  -->
<!DOCTYPE svg PUBLIC "-//W3C//DTD SVG 1.1//EN" "http://www.w3.org/Graphics/SVG/1.1/DTD/svg11.dtd">
<svg version="1.1" id="Layer_1" xmlns="http://www.w3.org/2000/svg" xmlns:xlink="http://www.w3.org/1999/xlink" x="0px" y="0px"
	 width="573.035px" height="307.964px" viewBox="0 0 573.035 307.964" enable-background="new 0 0 573.035 307.964"
	 xml:space="preserve">
<g>
	<path fill="none" stroke="#FFFFFF" stroke-width="3" stroke-miterlimit="10" d="M3.572,6.943h50.425V121.69h10.721V6.943h50.028
		v295.404H64.717V173.704H53.997v128.644H3.572V6.943z"/>
	<path fill="none" stroke="#FFFFFF" stroke-width="3" stroke-miterlimit="10" d="M183.033,302.348h-50.425V6.943h50.425V302.348z"/>
	<path fill="none" stroke="#FFFFFF" stroke-width="3" stroke-miterlimit="10" d="M262.835,253.511v-86.16h49.234v87.351
		c0,26.602-14.691,50.425-50.028,50.425H254.1c-38.116,0-53.204-20.249-53.204-55.189V57.766c0-30.97,15.088-53.602,52.807-53.602
		h8.338c34.94,0,50.028,19.058,50.028,48.043v78.218h-49.234v-76.63c0-4.765-0.794-7.544-5.162-7.544
		c-3.574,0-5.162,2.382-5.162,7.544v199.716c0,5.559,1.588,8.338,5.162,8.338C262.041,261.849,262.835,258.275,262.835,253.511z"/>
	<path fill="none" stroke="#FFFFFF" stroke-width="3" stroke-miterlimit="10" d="M329.538,302.348V6.943h50.028l-0.397,106.409
		L395.845,6.943h50.028l-24.22,133.805l25.411,161.599h-52.41l-15.485-116.335l0.397,116.335H329.538z"/>
	<path fill="none" stroke="#FFFFFF" stroke-width="3" stroke-miterlimit="10" d="M505.826,305.127
		c-32.955,0-49.233-15.088-49.233-45.66v-77.425h49.233v73.851c0,5.162,1.589,7.941,5.162,7.941s5.559-2.779,5.559-8.338v-57.572
		c0-9.529-1.191-13.5-8.735-20.25l-25.808-22.235c-17.073-14.293-24.221-30.573-24.221-52.808v-52.41
		c0-27.396,14.294-46.058,50.426-46.058h11.515c36.131,0,47.646,18.264,47.646,42.087v65.116h-48.44V48.633
		c0-4.368-1.588-6.353-5.161-6.353s-5.162,1.985-5.162,6.353v50.425c0,7.941,1.589,10.72,7.941,16.676l25.411,22.234
		c19.853,16.676,27.396,29.779,27.396,55.984v58.764c0,31.764-15.485,52.41-52.014,52.41H505.826z"/>
</g>
</svg>
